<?xml version="1.0" standalone="no"?>
<!DOCTYPE svg PUBLIC "-//W3C//DTD SVG 20010904//EN"
 "http://www.w3.org/TR/2001/REC-SVG-20010904/DTD/svg10.dtd">
<svg version="1.0" xmlns="http://www.w3.org/2000/svg"
 width="1280.000000pt" height="1149.000000pt" viewBox="0 0 1280.000000 1149.000000"
 preserveAspectRatio="xMidYMid meet">
<metadata>
Created by potrace 1.15, written by Peter Selinger 2001-2017
</metadata>
<g transform="translate(0.000000,1149.000000) scale(0.100000,-0.100000)"
fill="#9BA0A6" stroke="none">
<path d="M6850 11470 c-64 -23 -133 -68 -210 -135 -30 -26 -79 -59 -109 -72
-66 -31 -115 -28 -250 17 -205 68 -580 140 -731 140 -116 0 -264 -19 -383 -50
-122 -32 -451 -156 -559 -212 -151 -77 -298 -179 -354 -244 -27 -32 -141 -150
-254 -263 -113 -113 -229 -234 -259 -269 -29 -35 -85 -88 -125 -119 -97 -77
-256 -238 -347 -353 -143 -179 -229 -314 -366 -574 -46 -88 -98 -179 -115
-203 -49 -68 -106 -90 -273 -107 -77 -8 -152 -19 -166 -24 -27 -11 -155 -153
-250 -278 -70 -93 -93 -147 -124 -289 -14 -66 -41 -181 -60 -255 -45 -174 -78
-318 -105 -455 -11 -60 -27 -138 -35 -173 -24 -111 -37 -272 -37 -457 0 -208
14 -341 49 -475 14 -52 32 -124 40 -160 7 -36 42 -125 76 -199 34 -74 63 -137
65 -141 1 -4 -32 -17 -75 -29 -196 -56 -248 -75 -374 -137 -168 -83 -286 -153
-414 -244 -55 -40 -118 -80 -140 -90 -22 -10 -69 -43 -105 -74 -36 -30 -110
-92 -165 -136 -168 -134 -213 -179 -246 -240 -17 -32 -51 -82 -75 -110 -24
-28 -49 -70 -55 -93 -16 -60 7 -167 64 -294 57 -125 71 -180 63 -239 -3 -25
-38 -121 -77 -212 -39 -91 -82 -207 -96 -256 -13 -50 -42 -149 -63 -221 -42
-140 -94 -382 -134 -621 -31 -188 -46 -385 -67 -926 l-10 -267 61 -238 c87
-340 127 -469 167 -546 42 -79 307 -401 410 -498 91 -86 182 -154 438 -329
198 -136 323 -210 353 -210 8 0 75 -18 150 -39 218 -63 239 -66 452 -65 187 1
200 2 314 33 66 17 152 38 191 46 83 17 383 116 497 164 99 42 215 115 387
243 156 117 270 227 425 413 133 160 207 271 293 440 36 72 85 160 109 197 53
82 79 133 88 173 4 16 34 86 66 155 70 152 143 360 205 586 63 233 69 243 171
310 138 91 245 236 398 544 l93 185 -14 140 c-22 230 -41 344 -94 552 -52 206
-92 313 -188 498 -46 91 -56 118 -56 161 0 41 6 58 30 88 32 41 32 41 61 101
13 28 32 46 64 63 78 39 96 29 115 -60 33 -157 207 -419 372 -560 171 -146
527 -241 734 -197 39 8 64 23 105 60 30 27 59 49 65 49 29 0 80 -46 178 -160
59 -69 190 -213 292 -319 195 -205 250 -266 394 -430 132 -152 309 -309 424
-376 35 -21 102 -73 148 -116 47 -43 133 -109 191 -145 59 -37 175 -117 257
-179 289 -216 537 -345 907 -469 661 -222 1391 -276 1895 -140 194 52 331 124
468 244 138 122 130 120 310 76 183 -45 303 -60 414 -51 205 17 358 93 429
214 38 65 38 164 0 236 -66 125 -212 223 -455 305 l-103 35 0 305 c0 168 -5
369 -10 447 -8 135 -12 150 -71 330 -34 103 -82 234 -106 289 -65 150 -229
445 -338 610 -123 186 -542 710 -688 861 -199 205 -437 405 -566 473 -33 18
-101 66 -153 107 -219 176 -563 349 -1030 519 -97 35 -182 64 -187 64 -6 0
-109 37 -228 81 -168 63 -252 88 -368 112 -166 33 -225 55 -255 97 -11 16 -40
76 -64 134 -24 59 -63 135 -86 171 -59 91 -160 182 -255 232 -94 48 -143 64
-297 93 -127 24 -188 52 -202 93 -12 32 1 74 64 217 23 52 73 187 110 300 102
305 133 487 133 760 0 199 -15 300 -67 468 -19 59 -44 155 -56 212 -30 138
-69 248 -140 395 -68 140 -123 227 -193 308 -62 73 -66 99 -42 297 16 127 17
158 6 219 -28 155 -127 214 -271 161z m-6 -275 c0 -51 -16 -91 -75 -195 -28
-50 -30 -61 -26 -120 7 -110 66 -199 167 -250 66 -34 74 -56 99 -273 6 -50 20
-107 32 -135 17 -36 24 -73 28 -160 3 -61 3 -111 0 -110 -3 2 -30 24 -58 50
-52 47 -53 49 -67 135 -16 95 -31 143 -45 143 -5 0 -9 -15 -9 -33 0 -18 -10
-50 -21 -72 -20 -36 -21 -49 -15 -150 9 -140 30 -312 39 -321 14 -14 28 14 36
69 4 31 13 63 20 71 17 20 55 21 71 1 23 -28 49 -18 56 23 14 79 44 96 64 36
9 -25 10 -72 6 -153 -6 -87 -3 -138 9 -206 20 -115 7 -205 -29 -205 -34 0 -40
29 -37 171 2 120 0 140 -14 145 -23 9 -52 -21 -103 -109 -54 -93 -78 -114
-140 -123 -92 -13 -114 -48 -36 -57 75 -8 96 -53 36 -76 -15 -5 -56 -22 -91
-36 -103 -43 -131 -24 -156 111 -8 43 -20 91 -26 106 -12 29 -29 29 -29 0 0
-27 -137 -186 -168 -194 -15 -4 -33 -15 -39 -25 -20 -26 -16 -82 7 -111 20
-24 20 -26 3 -36 -10 -5 -52 -12 -95 -14 l-78 -5 -11 29 c-15 40 -5 199 16
248 15 36 15 39 -1 58 -10 10 -27 18 -38 16 -20 -3 -21 -12 -28 -155 -8 -153
-8 -154 -63 -303 -19 -52 -6 -69 49 -63 38 5 46 2 55 -16 13 -24 -3 -93 -25
-112 -18 -15 -56 -4 -92 26 -17 14 -34 25 -40 25 -30 0 -177 -215 -214 -311
-38 -103 -196 -253 -245 -235 -14 6 -14 9 6 29 32 35 29 157 -4 157 -7 0 -16
-7 -19 -15 -12 -33 -135 -70 -150 -46 -4 5 1 38 9 73 19 77 32 278 19 278 -6
0 -16 -21 -22 -47 -7 -27 -31 -79 -54 -118 -44 -76 -138 -205 -149 -205 -14 0
-60 -55 -130 -156 -40 -58 -83 -114 -97 -125 -53 -41 -103 -18 -262 120 -171
148 -438 309 -721 435 -143 64 -210 86 -377 126 -102 24 -198 70 -243 116 -28
29 -33 42 -37 95 -5 68 11 156 38 209 10 19 43 56 73 82 29 25 82 85 116 131
39 53 74 90 93 98 26 11 29 16 24 43 -4 17 -15 40 -26 50 -28 28 -65 10 -74
-36 -7 -37 -44 -77 -117 -126 -59 -40 -96 -83 -108 -128 -5 -19 -23 -50 -40
-70 -17 -19 -31 -43 -31 -52 0 -27 -29 -62 -52 -62 -19 0 -20 4 -15 66 3 45
14 85 35 127 17 34 34 81 37 105 4 23 11 42 15 42 5 0 35 53 67 117 81 163
181 298 426 571 115 129 276 312 325 370 28 34 91 84 185 145 78 52 183 129
232 172 50 42 120 95 158 117 79 47 329 150 431 178 96 26 287 50 401 50 160
0 505 -73 735 -157 92 -33 115 -37 190 -36 62 0 101 7 144 23 90 34 166 112
166 170 0 26 32 40 85 37 l40 -2 -1 -50z m-274 -2189 c0 -33 -35 -56 -85 -56
l-40 1 42 39 c49 47 83 53 83 16z m-3365 -269 c77 -25 206 -66 287 -91 150
-47 522 -203 710 -297 125 -63 227 -127 292 -185 26 -24 56 -44 66 -44 19 0
47 -27 37 -36 -9 -9 -79 -24 -117 -24 -46 0 -69 -17 -136 -101 l-56 -71 -22
20 c-46 42 -96 53 -139 30 -12 -6 -41 -28 -65 -48 -75 -66 -157 -75 -322 -34
-123 30 -159 25 -209 -31 -48 -55 -85 -209 -62 -254 24 -44 93 -20 154 53 34
41 42 46 80 46 23 0 81 -7 128 -16 77 -14 90 -14 122 0 32 13 43 13 84 1 27
-8 70 -28 98 -46 42 -27 56 -31 100 -27 57 5 140 41 149 65 4 8 1 22 -5 29
-17 20 -113 46 -143 38 -23 -6 -26 -3 -26 23 0 16 15 51 35 81 l36 52 43 -25
c25 -14 58 -25 80 -25 33 0 39 4 52 35 17 41 37 53 59 35 23 -19 18 -35 -25
-85 -48 -56 -45 -66 35 -125 61 -45 75 -65 75 -109 0 -56 -58 -94 -166 -111
-83 -13 -120 -37 -117 -75 1 -15 29 -67 63 -117 33 -49 60 -96 60 -103 0 -22
-39 -38 -76 -30 -45 8 -97 61 -112 114 -25 83 -121 155 -178 135 -31 -11 -74
-56 -74 -78 0 -12 20 -51 45 -88 25 -37 45 -72 45 -78 0 -5 -19 -47 -42 -92
-43 -81 -43 -81 -41 -179 2 -80 0 -98 -13 -103 -26 -10 -34 3 -34 54 0 43 -4
51 -30 70 -17 12 -46 46 -65 76 -51 80 -93 92 -148 44 -38 -33 -52 -76 -61
-178 -3 -34 -13 -76 -21 -92 -18 -36 -57 -63 -82 -58 -43 8 -77 218 -54 329
17 81 66 157 124 193 39 24 63 30 138 37 104 8 122 19 138 84 16 64 14 83 -14
110 -32 33 -80 32 -204 0 -52 -14 -102 -25 -111 -25 -46 0 -160 -88 -160 -124
0 -54 -59 -202 -112 -283 -29 -45 -44 -83 -54 -134 -13 -71 -42 -135 -60 -133
-13 0 -21 48 -23 131 -1 90 -6 103 -41 103 -34 0 -90 19 -90 31 0 4 16 15 34
24 29 14 39 28 62 88 28 73 55 106 115 142 46 27 140 199 147 266 10 107 -54
208 -162 254 -37 15 -66 35 -68 44 -2 9 0 48 4 86 7 82 3 111 -20 120 -10 4
-61 10 -115 13 -92 4 -99 3 -122 -18 -27 -25 -40 -60 -50 -130 -3 -25 -16 -77
-27 -117 -24 -85 -19 -130 20 -174 29 -31 81 -46 125 -35 13 3 48 22 77 42 69
47 107 58 136 39 30 -20 37 -46 24 -95 -14 -54 -59 -103 -122 -134 -60 -30
-115 -33 -160 -10 -30 15 -32 15 -45 -2 -8 -11 -13 -47 -13 -94 0 -89 -9 -104
-68 -120 -47 -12 -69 -39 -99 -122 -9 -27 -23 -48 -30 -48 -21 0 -26 70 -15
200 6 69 9 134 7 145 -2 11 -6 32 -10 48 -3 15 -21 44 -40 64 -21 23 -37 51
-40 73 -18 123 -54 192 -118 223 -33 17 -37 23 -37 55 0 21 -8 67 -19 103 -54
189 -30 303 99 465 37 47 83 115 104 151 41 75 42 73 -34 113 -28 14 -39 16
-51 7 -28 -21 -180 -208 -189 -233 -12 -31 -40 -32 -40 -1 0 13 13 43 28 68
35 56 49 93 55 147 11 96 68 119 357 143 74 6 153 14 175 18 44 8 74 1 300
-72z m3075 2 c28 -52 -32 -198 -120 -291 -65 -68 -100 -78 -100 -28 0 17 11
52 25 78 21 38 25 61 25 125 l0 77 47 30 c57 36 107 40 123 9z m-894 -394 c17
-26 11 -48 -28 -93 -15 -18 -28 -39 -28 -47 0 -37 -150 -159 -171 -138 -14 14
6 52 71 138 28 36 57 87 65 112 8 25 19 49 26 53 18 12 49 0 65 -25z m448
-467 c-2 -51 -53 -156 -108 -216 -25 -29 -46 -60 -46 -69 0 -25 -37 -79 -64
-91 -38 -17 -61 7 -57 62 0 10 21 38 46 62 25 25 48 57 51 72 4 15 17 38 29
52 13 14 34 48 49 77 26 52 71 97 90 90 6 -2 11 -20 10 -39z m-989 -64 c16
-24 16 -28 1 -42 -25 -26 -50 -4 -54 47 -3 39 -2 42 16 32 11 -6 27 -22 37
-37z m2765 -28 c150 -37 222 -87 251 -172 18 -52 18 -247 1 -296 -14 -40 -45
-68 -75 -68 -12 0 -25 16 -39 48 -11 26 -27 55 -36 65 -22 25 -69 21 -141 -13
-36 -17 -70 -29 -77 -26 -7 3 -17 31 -24 63 -19 95 -30 121 -65 152 -52 45
-98 54 -213 40 -74 -9 -118 -9 -181 0 -118 16 -123 15 -119 -11 4 -31 61 -66
120 -74 40 -5 56 -14 86 -46 20 -22 54 -48 74 -59 42 -22 56 -55 38 -89 -16
-30 -56 -21 -135 29 -95 62 -173 76 -218 41 -34 -27 -88 -25 -162 5 -85 36
-129 41 -161 21 -14 -10 -58 -24 -97 -32 -100 -21 -151 -53 -172 -107 -28 -73
-144 -129 -272 -131 -81 -1 -126 21 -131 66 -4 30 37 68 74 68 12 0 42 16 66
35 108 87 192 141 303 196 65 32 129 59 141 59 11 0 34 12 49 26 79 73 425
195 630 223 105 14 407 6 485 -13z m-5201 -15 c36 -23 -22 -60 -75 -47 -33 9
-26 28 17 43 42 15 41 15 58 4z m-89 -259 c67 -69 107 -139 97 -166 -21 -53
-172 53 -205 144 -12 34 4 90 26 90 9 0 46 -30 82 -68z m2429 -66 c49 -26 68
-108 35 -155 -15 -20 -23 -23 -67 -18 -62 6 -77 23 -77 94 0 82 43 113 109 79z
m784 -68 c20 -112 19 -127 -2 -161 -34 -55 -127 -136 -188 -164 -78 -36 -157
-38 -184 -4 -10 13 -19 38 -19 55 0 40 29 68 130 125 42 23 113 73 159 112 46
38 87 69 91 69 4 0 10 -15 13 -32z m-3480 -259 c3 -20 2 -42 -3 -49 -15 -24
-30 1 -30 49 0 77 21 77 33 0z m4689 41 c183 -38 230 -82 196 -185 -17 -51
-61 -75 -139 -75 -107 0 -191 48 -202 115 -3 19 -19 54 -36 79 -17 25 -31 54
-31 65 0 19 6 21 56 21 31 0 101 -9 156 -20z m1933 -79 c39 -10 160 -51 270
-90 110 -39 265 -94 345 -122 163 -57 366 -152 557 -259 268 -153 403 -251
588 -430 66 -64 163 -151 216 -192 79 -63 124 -110 245 -262 82 -102 158 -202
168 -223 11 -20 69 -89 130 -152 136 -144 217 -252 269 -358 37 -79 60 -173
41 -173 -14 0 -71 74 -91 116 -37 81 -351 442 -716 825 -156 163 -436 385
-748 595 -223 150 -413 256 -574 319 -72 29 -155 65 -183 79 -69 35 -119 42
-166 22 -49 -20 -47 -54 3 -76 118 -52 546 -271 651 -333 382 -226 448 -275
750 -559 331 -312 605 -616 753 -838 43 -63 95 -140 117 -171 22 -32 54 -93
70 -138 16 -45 54 -125 84 -179 30 -53 60 -119 66 -147 7 -27 21 -72 32 -100
51 -125 72 -298 48 -385 l-13 -45 -13 39 c-8 21 -17 68 -20 105 -4 36 -17 93
-30 126 -13 33 -40 110 -60 170 -55 168 -102 260 -178 345 -40 44 -81 103
-101 146 -53 112 -136 164 -143 89 -2 -22 14 -58 63 -140 126 -209 218 -426
262 -615 13 -58 33 -136 45 -175 29 -103 33 -139 14 -154 -14 -12 -20 -11 -37
5 -31 28 -49 67 -75 165 -13 49 -35 115 -49 148 -14 33 -25 71 -25 84 0 50
-68 75 -93 35 -8 -12 -4 -37 16 -100 32 -99 42 -162 58 -373 7 -88 16 -166 22
-172 6 -8 35 -13 78 -13 56 0 73 -4 89 -20 56 -56 -5 -143 -127 -179 -68 -20
-80 -29 -190 -132 -65 -61 -136 -121 -158 -133 -26 -15 -93 -34 -186 -52
l-147 -28 -73 22 c-41 12 -130 31 -199 43 -69 12 -146 29 -171 39 -25 10 -73
24 -106 30 -71 14 -88 23 -78 40 11 17 186 7 245 -14 66 -25 273 -38 516 -34
200 3 218 4 228 22 26 44 59 75 99 94 42 20 44 23 50 74 4 29 18 87 32 128 26
74 26 76 11 145 -8 39 -19 108 -25 154 -6 56 -15 92 -29 110 -21 29 -49 38
-65 22 -6 -6 -16 -93 -23 -194 -18 -265 -50 -340 -168 -401 -48 -25 -70 -30
-159 -34 -129 -6 -221 7 -516 68 -207 43 -245 55 -340 99 -58 28 -133 56 -165
62 -64 11 -274 108 -359 164 -28 19 -99 54 -157 78 -139 58 -197 88 -252 130
-79 60 -114 71 -137 43 -10 -12 -8 -17 8 -26 24 -12 162 -167 199 -223 19 -28
22 -41 14 -49 -19 -19 -68 11 -161 98 -91 85 -111 119 -111 189 0 49 -13 82
-39 102 -41 31 -154 84 -174 81 -19 -3 -22 -9 -22 -50 0 -25 -3 -49 -7 -53 -4
-4 -22 2 -41 14 -43 27 -207 196 -207 214 0 8 9 22 20 32 11 10 20 22 20 26 0
4 -27 24 -60 44 -40 25 -88 69 -144 134 -108 126 -201 210 -268 244 -63 32
-93 34 -110 7 -18 -28 -46 -25 -111 14 -111 67 -226 185 -241 248 -4 17 -18
34 -36 43 -16 8 -34 24 -40 35 -6 11 -22 23 -36 26 -14 4 -30 17 -35 30 -5 14
-20 29 -34 34 -18 7 -25 17 -25 35 0 14 3 25 8 25 14 0 57 -33 117 -90 87 -83
165 -143 219 -170 68 -32 75 -17 26 59 -22 34 -40 64 -40 67 0 4 -33 43 -73
88 -125 139 -188 217 -182 227 9 13 59 11 77 -3 8 -7 25 -30 37 -50 31 -53
142 -151 205 -183 32 -16 116 -83 201 -161 130 -119 175 -151 175 -126 0 17
-46 71 -222 265 -148 163 -215 227 -315 305 -228 178 -248 216 -159 301 44 42
57 93 31 121 -14 15 -17 36 -16 110 1 67 -2 96 -14 113 -15 22 -20 68 -9 80 4
3 36 -5 72 -19 80 -30 96 -26 87 18 -11 53 -54 135 -80 152 -14 9 -25 23 -25
31 0 7 -14 25 -31 38 -21 17 -30 30 -26 41 4 9 11 16 16 16 5 0 47 -26 93 -57
65 -45 91 -57 123 -57 35 -1 40 2 43 23 6 38 -6 66 -54 130 -25 33 -43 65 -39
71 10 16 71 12 86 -6 17 -21 71 -48 148 -73 87 -29 126 -28 147 4 15 23 15 27
-6 70 -12 25 -35 54 -51 66 -55 39 -10 53 56 18 23 -13 66 -24 102 -27 84 -6
90 8 40 100 -20 37 -37 72 -37 78 0 8 26 9 89 5 l88 -7 6 42 c3 24 11 47 19
52 7 5 45 6 83 3 242 -20 267 -19 278 10 10 26 -39 70 -134 121 -51 26 -109
61 -131 76 -37 27 -49 60 -27 73 27 18 121 24 294 20 147 -3 206 -8 260 -24z
m-4052 -40 c52 -45 40 -76 -23 -65 -44 7 -60 20 -60 48 0 46 41 55 83 17z
m-1698 -35 c8 -23 5 -31 -20 -56 -32 -31 -85 -50 -85 -30 0 30 66 123 83 117
7 -2 16 -16 22 -31z m3369 -1 c32 -30 56 -83 56 -124 0 -43 28 -68 97 -85 34
-8 98 -29 142 -46 67 -26 81 -35 81 -53 0 -56 -142 -254 -154 -216 -2 8 -7 70
-10 138 -3 86 -9 127 -18 133 -7 4 -40 8 -73 8 -81 0 -106 15 -122 70 -7 24
-24 53 -39 65 -26 21 -43 87 -31 120 9 23 41 18 71 -10z m-3896 -22 c4 -26
-31 -97 -63 -129 -26 -26 -73 -32 -93 -12 -18 18 -14 69 8 103 32 48 61 65
105 63 32 -3 41 -7 43 -25z m2707 -3 c4 -6 10 -38 15 -72 7 -45 16 -68 36 -89
35 -37 27 -45 -55 -58 -73 -12 -104 -35 -131 -97 -18 -40 -29 -51 -120 -117
-24 -18 -71 -65 -103 -105 -32 -40 -85 -91 -118 -113 -32 -22 -59 -45 -59 -50
0 -6 -57 -68 -127 -137 -95 -94 -137 -144 -162 -192 -78 -149 -127 -194 -203
-188 -58 4 -75 35 -48 87 25 49 127 173 255 311 59 63 138 156 175 206 40 54
130 149 221 235 186 175 279 267 340 337 44 50 71 64 84 42z m862 -61 c50 -19
83 -58 83 -101 0 -33 -4 -40 -27 -49 -41 -15 -119 -1 -153 28 -77 64 -1 159
97 122z m-1787 -295 c32 -51 49 -128 33 -153 -30 -48 -102 -2 -110 69 -6 56
12 130 33 130 8 0 28 -21 44 -46z m-1473 20 c48 -13 8 -24 -84 -24 -103 0
-115 6 -36 20 62 10 93 11 120 4z m2991 -25 c59 -57 53 -102 -10 -76 -37 15
-78 64 -78 91 0 28 53 19 88 -15z m426 -25 c18 -18 20 -42 6 -78 -15 -40 -37
-32 -98 36 l-23 26 43 15 c55 20 54 20 72 1z m-2430 -45 c14 -17 26 -40 26
-51 0 -35 -38 -84 -84 -108 -42 -23 -45 -23 -70 -7 -14 10 -29 29 -32 43 -15
61 73 187 115 164 11 -5 31 -23 45 -41z m-704 -32 c0 -51 -13 -88 -25 -75 -13
13 -16 84 -6 111 16 41 31 23 31 -36z m-254 -518 c147 -14 347 -54 447 -88 81
-28 381 -158 487 -211 30 -15 82 -48 115 -72 33 -24 116 -82 185 -128 241
-163 432 -331 534 -469 26 -36 72 -113 102 -172 30 -60 84 -147 120 -195 75
-101 150 -248 164 -321 5 -28 20 -78 33 -110 40 -98 50 -158 44 -246 -4 -45
-11 -85 -17 -91 -27 -27 -86 105 -101 223 -10 82 -31 115 -79 126 -43 9 -57
33 -74 124 -9 47 -24 93 -33 103 -9 10 -42 26 -72 34 -70 20 -87 35 -95 84
-15 93 -33 105 -170 114 -131 8 -145 22 -165 169 -14 96 -21 112 -69 136 -46
24 -76 56 -95 103 -17 41 -48 62 -81 54 -11 -3 -45 -26 -74 -51 -30 -25 -59
-45 -66 -45 -35 0 -66 86 -66 185 0 47 -10 58 -101 117 -44 29 -61 47 -82 91
-26 56 -58 87 -88 87 -31 0 -78 -49 -85 -88 -10 -63 -15 -72 -36 -72 -29 0
-82 57 -103 112 -17 47 -17 48 4 102 44 108 11 171 -91 171 -40 0 -53 -4 -69
-24 -28 -34 -26 -39 33 -124 18 -26 -13 -47 -70 -47 -35 0 -49 6 -73 29 -25
26 -29 37 -29 86 0 71 -10 89 -68 126 -81 51 -105 37 -132 -79 -12 -51 -31
-82 -51 -82 -5 0 -34 23 -64 50 -30 28 -62 50 -69 50 -57 0 -68 -51 -32 -142
35 -87 34 -98 -7 -98 -56 0 -180 107 -211 182 -19 43 -29 51 -68 50 -36 -1
-68 -27 -68 -55 0 -11 25 -46 55 -78 30 -32 55 -62 55 -68 0 -17 -43 -41 -75
-41 -25 0 -52 18 -129 85 -96 82 -178 128 -196 109 -5 -5 -2 -35 7 -69 36
-137 -34 -218 -111 -129 -87 101 -103 114 -139 114 -20 0 -43 -7 -51 -16 -36
-35 -6 -128 60 -182 l36 -30 -23 -16 c-32 -22 -88 -20 -149 4 l-51 20 -33 -35
c-26 -27 -41 -35 -68 -35 -72 0 -100 -12 -166 -74 -63 -60 -66 -61 -131 -66
-61 -5 -66 -7 -69 -29 -2 -14 2 -51 9 -83 17 -83 10 -88 -93 -61 -51 14 -87
19 -97 13 -9 -5 -21 -36 -28 -75 -14 -77 -34 -105 -74 -105 -96 0 -67 176 62
369 72 109 123 162 224 236 44 32 99 75 122 96 30 28 64 45 125 63 45 14 119
47 163 72 176 103 229 127 445 198 241 80 329 102 455 115 119 12 327 12 451
0z m3006 -157 c7 -7 8 -15 4 -19 -13 -13 -149 -15 -181 -3 -29 11 -30 12 -10
27 24 17 168 14 187 -5z m1170 -3 c24 -13 53 -78 40 -91 -5 -5 -20 -6 -34 -3
-19 5 -28 17 -37 46 -11 35 -9 59 5 59 3 0 14 -5 26 -11z m-1894 -228 c8 -5
12 -21 10 -37 -2 -25 -8 -29 -35 -32 -33 -3 -38 3 -33 38 1 14 27 40 39 40 3
0 12 -4 19 -9z m759 -506 c6 -18 -23 -55 -43 -55 -23 0 -64 23 -64 36 0 32 95
48 107 19z m-3278 -115 c118 -42 183 -131 165 -225 -7 -38 2 -75 19 -75 6 0
47 38 92 84 62 66 88 86 116 91 51 9 92 -14 118 -67 37 -78 44 -141 36 -308
-13 -243 -12 -393 3 -397 7 -3 12 4 12 17 0 13 16 57 35 100 19 43 39 100 44
127 5 27 21 71 34 98 14 28 33 85 42 127 26 121 62 151 131 109 43 -26 61 -74
45 -115 -7 -17 -15 -42 -18 -56 -3 -14 -14 -34 -23 -45 -34 -37 -70 -206 -51
-235 26 -39 79 44 88 137 7 66 29 117 67 152 l26 24 22 -28 c33 -41 37 -53 37
-125 1 -46 7 -74 21 -97 25 -42 53 -42 90 -3 15 17 34 30 40 30 22 0 76 -66
88 -107 18 -60 15 -86 -19 -181 -17 -48 -59 -204 -94 -347 -199 -820 -338
-1286 -425 -1425 -16 -25 -33 -64 -39 -86 -17 -64 -115 -144 -176 -144 -31 0
-34 29 -5 55 38 35 49 136 16 148 -23 9 -75 -34 -97 -81 -24 -48 -104 -142
-122 -142 -6 0 -8 28 -4 73 3 53 13 88 35 132 17 33 46 115 66 182 20 67 49
155 65 195 16 40 32 98 36 128 4 30 18 88 31 128 26 79 30 127 14 184 -12 42
-32 54 -53 30 -14 -16 -101 -217 -126 -291 -6 -19 -11 -47 -11 -63 0 -16 -17
-84 -39 -151 -21 -67 -43 -156 -50 -197 -26 -169 -158 -358 -278 -400 -40 -14
-63 -3 -93 44 -11 19 -43 48 -69 65 -29 17 -51 39 -54 53 -7 27 -44 48 -83 48
-48 0 -65 17 -58 58 4 28 2 41 -10 51 -9 7 -16 20 -16 27 0 24 -39 54 -70 54
-35 0 -38 -10 -10 -35 11 -10 20 -24 20 -32 0 -33 -108 -123 -148 -123 -22 0
-42 33 -42 69 0 46 -36 105 -67 109 -31 5 -50 -38 -62 -137 -15 -118 -40 -152
-81 -109 -24 26 -35 59 -55 162 -17 90 -27 106 -66 106 -72 0 -79 -126 -25
-443 40 -231 42 -265 22 -292 -13 -18 -14 -17 -29 6 -9 13 -37 74 -63 134 -57
134 -79 167 -108 163 -50 -7 -22 -178 70 -429 34 -94 83 -169 109 -169 18 0
26 -27 19 -66 -10 -53 -27 -61 -84 -41 -26 9 -53 17 -59 17 -16 0 -14 -36 4
-70 l16 -30 122 0 c115 0 125 -2 156 -24 34 -25 60 -33 219 -62 175 -32 420
10 642 108 30 14 67 28 83 32 82 20 -34 -104 -161 -172 -43 -23 -104 -40 -242
-67 -162 -32 -198 -36 -285 -32 -66 3 -117 12 -150 25 -27 11 -97 30 -155 42
-148 30 -193 46 -226 81 -16 17 -77 66 -135 109 -59 44 -116 94 -127 112 -11
18 -41 87 -67 153 -26 66 -58 140 -70 165 -12 25 -34 81 -49 126 -30 90 -73
151 -99 141 -41 -15 -8 -202 69 -398 42 -108 77 -181 128 -265 20 -32 36 -65
36 -71 0 -30 -39 -8 -100 54 -51 53 -79 96 -132 198 -115 225 -164 447 -188
847 -12 220 0 382 44 590 19 90 42 213 52 273 21 135 25 326 7 332 -9 3 -13
-10 -13 -49 0 -69 -16 -125 -39 -137 -28 -16 -59 -99 -71 -193 -6 -48 -17
-105 -25 -127 -37 -107 -60 -485 -51 -861 7 -295 14 -361 51 -478 28 -87 31
-157 5 -157 -8 0 -19 14 -24 30 -5 17 -20 58 -33 92 -13 34 -28 90 -34 124 -5
34 -19 87 -30 118 -13 38 -23 102 -29 196 -12 178 -12 819 0 990 8 119 14 145
65 300 86 262 122 384 130 450 10 90 71 322 120 462 47 132 46 144 -9 123 -20
-7 -36 -28 -62 -86 -18 -41 -52 -101 -73 -132 -68 -101 -132 -248 -142 -330
-6 -42 -20 -94 -34 -120 -21 -41 -25 -69 -34 -212 -6 -91 -19 -215 -31 -277
-23 -127 -66 -273 -80 -273 -13 0 -12 291 0 388 5 40 18 102 29 137 11 35 25
91 31 125 6 34 20 78 30 98 10 20 26 79 35 131 9 52 27 120 40 150 13 31 35
108 49 170 30 133 72 231 123 283 45 47 83 56 134 33 21 -10 44 -15 51 -13 7
3 41 50 75 105 34 54 71 107 83 118 13 12 44 22 86 26 81 10 138 36 187 83 74
73 391 206 607 255 162 36 200 40 370 37 141 -3 174 -7 229 -26z m3407 -94
c18 -14 18 -15 -9 -21 -30 -8 -133 -2 -143 8 -28 27 115 40 152 13z m268 -212
c23 -9 19 -31 -6 -38 -54 -14 -162 -2 -155 18 6 18 126 33 161 20z m5566 -266
c0 -13 11 -46 24 -73 24 -52 37 -116 56 -275 7 -52 21 -120 31 -150 24 -68 24
-120 0 -317 -11 -87 -25 -209 -32 -270 -6 -62 -17 -120 -23 -129 -11 -14 -14
-14 -35 3 l-23 19 18 80 c17 69 19 122 19 424 0 376 -9 477 -50 579 -24 59
-32 111 -18 124 14 15 33 6 33 -15z m-7837 -377 c25 -28 38 -53 43 -86 10 -68
-1 -171 -26 -245 -25 -73 -30 -163 -11 -198 7 -13 28 -30 47 -38 21 -9 39 -25
45 -41 12 -33 8 -155 -7 -160 -6 -2 -23 8 -39 21 -36 31 -66 39 -100 26 -33
-12 -45 -42 -91 -217 -20 -76 -50 -174 -66 -218 -16 -44 -40 -128 -53 -187
-32 -145 -86 -253 -133 -269 -6 -2 -15 -26 -18 -54 -5 -34 -16 -60 -36 -83
-15 -18 -28 -44 -28 -57 0 -14 -13 -53 -29 -87 -15 -35 -38 -93 -50 -130 -24
-77 -70 -158 -88 -158 -31 0 1 192 52 305 14 32 45 79 69 105 56 60 78 102 87
168 4 30 14 61 22 70 7 10 18 49 24 87 6 39 24 103 41 141 17 39 63 192 102
340 40 148 88 321 107 384 35 113 36 120 44 347 9 289 19 314 92 234z m626
-72 c22 -24 18 -47 -13 -59 -43 -16 -69 18 -46 61 14 25 34 24 59 -2z m3017
-81 c52 -38 295 -282 335 -335 42 -56 90 -87 152 -98 31 -6 42 -15 57 -45 11
-21 25 -40 32 -43 7 -2 10 -8 6 -12 -10 -11 -105 14 -160 41 -27 14 -54 36
-62 52 -8 15 -59 65 -115 110 -134 112 -301 299 -301 339 0 19 23 16 56 -9z
m696 -9 c11 -6 66 -45 122 -87 55 -43 138 -97 184 -122 45 -25 131 -76 191
-115 60 -38 130 -82 155 -97 62 -36 60 -52 -3 -45 -61 7 -128 42 -206 108 -35
29 -108 74 -175 106 -63 31 -142 74 -174 96 -76 51 -156 129 -156 150 0 20 31
23 62 6z m-4150 -244 c-4 -32 -25 -66 -36 -62 -13 4 -20 52 -12 74 9 23 52 13
48 -12z m673 -26 c91 -25 80 -43 -35 -54 -89 -8 -121 6 -101 43 13 25 68 30
136 11z m4681 -194 c24 -14 49 -35 55 -46 27 -52 -50 -48 -106 6 -66 61 -31
88 51 40z m-1156 -150 c19 -12 57 -47 83 -76 27 -30 60 -66 73 -81 15 -16 36
-28 50 -28 24 0 43 -24 30 -37 -10 -10 -87 17 -92 32 -3 8 -25 23 -48 35 -46
22 -160 120 -177 151 -23 44 14 46 81 4z m1051 -35 c24 -13 25 -40 2 -41 -54
-4 -80 9 -70 35 7 18 39 21 68 6z m486 -3 c12 -13 -21 -37 -51 -37 -34 0 -56
15 -56 38 0 11 11 13 50 10 28 -3 53 -8 57 -11z m-332 -77 c46 -18 18 -33 -47
-26 -65 6 -81 12 -73 27 8 12 87 12 120 -1z m-5575 -333 c-6 -31 -28 -94 -50
-140 l-38 -82 -1 100 c0 55 4 116 9 135 7 29 56 164 79 220 11 28 12 -174 1
-233z m238 76 c-4 -109 -10 -135 -25 -119 -11 10 -10 236 1 261 17 40 28 -26
24 -142z m7881 112 c77 -19 214 -81 259 -119 67 -58 27 -81 -128 -73 -166 9
-246 42 -276 114 -17 39 -6 69 29 83 31 12 44 12 116 -5z m-3367 -24 c8 -10
34 -24 58 -31 25 -6 146 -62 270 -124 124 -62 257 -125 295 -140 39 -15 117
-49 175 -76 139 -64 235 -92 470 -137 l195 -38 413 2 c353 2 412 1 412 -12 0
-17 -40 -28 -170 -49 -53 -9 -116 -22 -140 -31 -109 -38 -269 -37 -329 2 -19
12 -68 18 -205 24 -183 9 -487 53 -591 85 -27 9 -85 36 -129 61 -43 24 -121
62 -174 84 -148 60 -479 238 -533 287 -48 43 -68 80 -54 101 9 16 22 13 37 -8z
m1417 -42 c35 -12 41 -34 11 -42 -27 -7 -112 15 -117 30 -7 21 57 29 106 12z
m-6292 -466 c-4 -71 -11 -96 -43 -163 -22 -44 -44 -79 -51 -80 -32 -1 -26 90
13 178 13 30 29 73 35 95 27 100 53 83 46 -30z m-3491 -353 c8 -83 21 -156 38
-207 14 -43 39 -134 55 -203 38 -160 82 -298 137 -427 49 -115 52 -133 25
-133 -71 0 -216 304 -242 508 -14 113 -25 178 -38 227 -19 71 -12 390 7 370 4
-3 12 -64 18 -135z m2508 -153 c43 -31 -21 -129 -128 -199 -60 -38 -106 -49
-106 -24 0 31 180 236 208 236 4 0 16 -6 26 -13z m-784 -69 c36 -18 51 -34 73
-80 43 -85 21 -103 -54 -43 -32 25 -54 35 -81 35 -67 0 -90 -42 -92 -167 -2
-81 -5 -97 -23 -115 -19 -19 -25 -20 -53 -8 -65 27 -108 159 -80 245 7 21 32
57 55 80 72 73 174 94 255 53z m1545 -7 c7 -22 -10 -71 -25 -71 -11 0 -14 73
-3 83 11 12 21 8 28 -12z m-1169 -346 c10 -26 -4 -61 -46 -114 -45 -56 -76
-66 -86 -27 -8 32 20 89 62 126 38 33 62 38 70 15z m994 -6 c0 -29 -54 -99
-77 -99 -8 0 -13 13 -13 35 0 29 6 39 33 55 36 22 57 26 57 9z m-1240 -294
c39 -48 -100 -95 -279 -95 -108 0 -106 20 3 37 44 7 86 19 96 28 44 40 156 58
180 30z m-993 -194 c28 -44 123 -120 163 -131 19 -5 51 -12 71 -15 19 -3 44
-12 55 -20 19 -15 19 -15 0 -30 -11 -8 -35 -15 -52 -15 -39 0 -81 -17 -88 -36
-3 -7 6 -27 20 -44 l26 -30 -31 0 c-23 0 -33 6 -43 28 -8 16 -23 28 -38 30
-14 2 -29 8 -34 12 -13 13 -86 231 -86 258 0 30 14 28 37 -7z m-243 -32 c17
-14 26 -30 26 -50 0 -42 -18 -37 -75 21 l-49 50 36 0 c21 0 46 -9 62 -21z
m1756 -143 c-20 -18 -71 -28 -89 -17 -25 16 0 31 52 31 44 0 49 -2 37 -14z
m-296 -106 c74 -28 -11 -61 -169 -68 -121 -5 -265 11 -265 29 0 29 372 63 434
39z m-856 -101 c4 -19 -47 -30 -87 -20 l-25 7 25 17 c29 22 83 19 87 -4z m242
-64 c30 -8 100 -27 154 -43 55 -15 101 -32 103 -39 5 -15 -50 -30 -143 -39
-63 -6 -77 -3 -135 21 -35 15 -86 35 -114 45 -51 19 -69 45 -43 61 21 14 119
10 178 -6z"/>
<path d="M4224 10452 c-25 -17 -125 -156 -122 -171 6 -31 37 -21 100 32 78 66
113 114 97 133 -12 15 -57 18 -75 6z"/>
<path d="M4022 9905 c-54 -60 -89 -145 -62 -145 24 0 70 32 100 70 65 82 29
152 -38 75z"/>
<path d="M6686 9910 c-2 -14 -7 -51 -11 -83 -3 -32 -11 -73 -19 -91 -15 -35
-6 -66 19 -66 18 0 23 18 30 131 5 61 3 104 -3 115 -10 17 -11 17 -16 -6z"/>
<path d="M6427 9873 c-22 -26 -38 -93 -39 -168 -1 -74 7 -88 48 -83 23 2 34
13 52 48 52 105 3 273 -61 203z"/>
<path d="M3724 9520 c-17 -11 -52 -52 -78 -90 -25 -38 -68 -95 -96 -125 -27
-30 -53 -67 -56 -82 -4 -16 -22 -62 -41 -105 -38 -87 -41 -118 -15 -141 41
-37 127 -15 220 54 78 59 112 117 112 193 1 43 9 83 30 136 31 78 39 147 18
168 -18 18 -59 14 -94 -8z"/>
<path d="M5746 9241 c-25 -27 -35 -207 -14 -235 13 -17 18 -17 44 -5 42 20 64
71 64 149 0 74 -18 110 -54 110 -13 0 -31 -9 -40 -19z"/>
<path d="M2752 8588 c-7 -7 -12 -16 -12 -20 0 -4 -19 -38 -42 -75 -23 -38 -56
-106 -74 -152 -22 -54 -48 -99 -75 -128 -38 -41 -41 -49 -36 -85 5 -40 40 -88
63 -88 7 0 20 -7 28 -16 13 -12 15 -31 10 -102 -6 -79 -5 -89 14 -105 37 -34
64 -19 87 48 12 33 45 104 73 158 69 134 95 243 96 408 1 111 -1 129 -18 148
-22 24 -93 30 -114 9z"/>
<path d="M3283 8445 c-118 -32 -225 -116 -238 -187 -9 -46 8 -86 40 -94 28 -7
96 18 117 43 25 31 76 47 172 54 138 11 150 21 154 123 l3 76 -98 -1 c-54 0
-122 -7 -150 -14z"/>
<path d="M3750 8253 c-57 -22 -95 -123 -69 -178 26 -54 102 -53 186 2 77 50
95 122 38 155 -32 18 -129 32 -155 21z"/>
<path d="M10831 5146 c-21 -25 -7 -84 31 -123 93 -96 122 -12 29 88 -42 46
-48 50 -60 35z"/>
<path d="M8290 4395 c-30 -37 61 -79 107 -50 12 9 23 21 23 29 0 32 -107 49
-130 21z"/>
<path d="M8470 4312 c0 -22 64 -104 128 -164 71 -67 135 -108 168 -108 33 0
101 -40 184 -109 59 -49 99 -74 139 -87 70 -21 112 -42 202 -101 39 -25 107
-58 150 -73 43 -15 122 -52 176 -81 184 -99 208 -109 318 -138 61 -16 175 -50
255 -76 184 -58 274 -72 378 -57 193 27 330 121 348 238 5 37 2 54 -22 102
-16 31 -35 57 -43 57 -7 0 -31 -31 -53 -70 -22 -38 -51 -82 -66 -98 -90 -95
-274 -106 -553 -32 -115 30 -228 58 -428 105 -27 7 -74 34 -124 71 -44 33
-119 80 -166 105 -47 24 -117 66 -156 93 -38 27 -144 88 -235 136 -91 48 -253
134 -361 191 -177 94 -239 119 -239 96z"/>
<path d="M10724 4046 c-9 -24 16 -95 45 -128 22 -25 33 -30 54 -24 53 13 40
75 -28 135 -38 33 -62 39 -71 17z"/>
<path d="M10478 3899 c-27 -15 -40 -46 -48 -116 -5 -36 -11 -67 -14 -71 -9 -8
-219 35 -360 75 -123 34 -202 41 -237 22 -17 -9 -18 -13 -8 -26 31 -36 313
-156 459 -194 116 -31 261 -32 309 -4 55 32 74 66 74 129 0 121 -101 228 -175
185z"/>
<path d="M1078 4433 c-36 -41 -83 -171 -99 -273 -7 -47 -18 -75 -40 -102 -35
-44 -49 -78 -49 -121 0 -18 -12 -56 -25 -86 -28 -59 -27 -81 3 -81 41 0 85 75
127 215 15 50 52 142 82 206 58 125 78 214 53 244 -16 20 -33 19 -52 -2z"/>
<path d="M3244 4015 c-27 -41 -29 -96 -5 -125 l21 -25 20 24 c31 36 24 151
-10 151 -5 0 -17 -11 -26 -25z"/>
<path d="M1077 3753 c-15 -17 -52 -107 -83 -203 -32 -98 -135 -587 -151 -717
-22 -182 -25 -655 -4 -725 7 -27 17 -48 22 -48 14 0 27 68 44 230 44 421 114
848 175 1070 36 130 71 356 60 385 -11 29 -40 33 -63 8z"/>
<path d="M3182 3725 c-26 -32 -57 -114 -83 -214 -31 -122 -21 -242 17 -210 49
41 104 218 107 346 2 96 -9 118 -41 78z"/>
<path d="M3311 3257 c-21 -26 -41 -100 -76 -282 -20 -101 -47 -220 -60 -266
-29 -95 -31 -137 -10 -165 13 -16 16 -17 24 -4 6 8 15 36 21 62 5 26 25 87 44
135 18 49 37 106 40 128 4 22 20 79 37 128 24 69 30 105 30 172 0 47 -2 89 -6
95 -9 14 -31 12 -44 -3z"/>
<path d="M1092 1964 c-20 -35 25 -172 69 -212 27 -26 74 -29 83 -6 4 10 -5 26
-24 44 -21 20 -33 43 -40 79 -11 60 -26 86 -57 100 -18 8 -24 7 -31 -5z"/>
</g>
</svg>
